#!OML:ASF H:\Terrain\Patient Classification 1\Walking\liu\liu.ASF
:FULLY-SPECIFIED
:DEGREES
388
root 14.194244 25.627499 27.195900 8.846610 -0.369981 -7.580595
lowerback -9.691155 3.706125 2.493360
upperback -0.179843 4.578930 5.002020
thorax 5.102670 2.281635 4.198215
lowerneck -28.859550 -9.317445 -19.962450
upperneck 32.639999 -12.169319 19.994251
head 17.086950 -4.874715 8.827215
rclavicle 0.000000 -0.000000
rhumerus -41.797050 24.532951 -124.697250
rradius 65.523895
rwrist -31.558800
rhand -47.347500 -34.124252
rfingers 10.687531
rthumb -7.243095 -79.011597
lclavicle 0.000000 -0.000000
lhumerus -75.928802 -17.384550 143.096100
lradius 39.337650
lwrist 14.442000
lhand -19.567049 -33.809250
lfingers 10.687531
lthumb 19.575150 10.548360
rfemur 3.514185 7.802940 47.069851
rtibia 22.043100
rfoot -23.831699 8.541675
rtoes -22.220100
lfemur -61.187103 3.994320 -23.120251
ltibia 44.139900
lfoot -21.778351 13.806255
ltoes -18.877800
389
root 14.209170 25.626749 27.410252 8.820869 -0.831656 -7.197465
lowerback -9.984795 3.960585 2.057580
upperback 0.126422 4.934550 4.882365
thorax 5.554950 2.448885 4.378890
lowerneck -29.281351 -9.522495 -20.072100
upperneck 32.525249 -12.365339 20.004450
head 17.164499 -4.956300 8.808496
rclavicle 0.000000 -0.000000
rhumerus -40.570950 24.423599 -124.605759
rradius 64.363350
rwrist -31.741499
rhand -48.445648 -33.022350
rfingers 10.687531
rthumb -8.303446 -77.883896
lclavicle 0.000000 -0.000000
lhumerus -75.898056 -17.567101 143.355438
lradius 39.386402
lwrist 14.859120
lhand -19.394100 -32.428799
lfingers 10.687531
lthumb 19.741949 11.918085
rfemur 5.411610 8.256360 46.583851
rtibia 20.096251
rfoot -23.169449 8.595600
rtoes -20.488949
lfemur -61.213348 3.803850 -23.524200
ltibia 41.960850
lfoot -22.375801 14.150955
ltoes -15.801901
390
root 14.215515 25.611151 27.600151 8.919600 -0.970110 -7.707766
lowerback -10.157445 4.025625 2.344710
upperback 0.188148 4.982385 5.087940
thorax 5.718675 2.475000 4.449195
lowerneck -29.236202 -9.534255 -20.014351
upperneck 32.393402 -12.348406 19.844551
head 17.092051 -4.963830 8.733510
rclavicle -0.000000 -0.000000
rhumerus -39.869698 24.574499 -124.678955
rradius 63.516300
rwrist -31.744350
rhand -49.673698 -34.093948
rfingers 10.687531
rthumb -9.489000 -78.922195
lclavicle -0.000000 -0.000000
lhumerus -76.150497 -17.124300 143.343597
lradius 39.577202
lwrist 14.949660
lhand -19.528500 -32.594849
lfingers 10.687531
lthumb 19.612200 11.760420
rfemur 7.152585 8.900130 47.225998
rtibia 17.983650
rfoot -22.478849 8.154810
rtoes -19.718552
lfemur -61.729797 3.414750 -22.677750
ltibia 39.958199
lfoot -22.458302 14.544465
ltoes -18.272549
391
root 14.230589 25.577551 27.788849 8.999445 -1.105935 -8.649179
lowerback -10.334070 4.127670 3.155595
upperback 0.280562 5.030085 5.384010
thorax 5.941950 2.510055 4.323465
lowerneck -29.231400 -9.429960 -19.996050
upperneck 32.216702 -12.214379 19.948500
head 17.008051 -4.890270 8.787210
rclavicle -0.000000 -0.000000
rhumerus -39.444599 24.448799 -124.729500
rradius 63.067802
rwrist -31.488150
rhand -48.347404 -33.064651
rfingers 10.687531
rthumb -8.208495 -77.928749
lclavicle -0.000000 -0.000000
lhumerus -76.361549 -16.547852 143.154907
lradius 39.820503
lwrist 14.762085
lhand -18.824100 -32.587502
lfingers 10.687531
lthumb 20.291250 11.723460
rfemur 8.971935 8.677200 48.172199
rtibia 15.582300
rfoot -21.722099 8.613091
rtoes -21.338100
lfemur -62.279549 2.779245 -21.114300
ltibia 38.077950
lfoot -22.673250 14.985615
ltoes -25.021351
392
root 14.255026 25.556850 27.990749 8.885715 -1.216843 -9.211725
lowerback -10.247325 4.224705 3.732930
upperback 0.339870 5.106960 5.555850
thorax 5.976435 2.557785 4.185495
lowerneck -29.233650 -9.396615 -20.133301
upperneck 32.175301 -12.157125 20.093250
head 16.997849 -4.859415 8.875920
rclavicle -0.000000 -0.000000
rhumerus -39.381447 24.204750 -124.809601
rradius 62.880753
rwrist -31.088551
rhand -47.570099 -32.032349
rfingers 10.687531
rthumb -7.458030 -76.914902
lclavicle -0.000000 -0.000000
lhumerus -76.737602 -16.081951 143.089493
lradius 40.055702
lwrist 14.692005
lhand -18.030149 -32.287498
lfingers 10.687531
lthumb 21.056400 11.971455
rfemur 10.800945 8.691629 48.650402
rtibia 13.604715
rfoot -21.349051 8.741850
rtoes -23.165550
lfemur -62.329651 2.043045 -20.044800
ltibia 36.115349
lfoot -23.108101 15.055799
ltoes -25.840500
393
root 14.280855 25.558050 28.195351 8.940360 -1.219599 -9.412905
lowerback -10.291680 4.272945 3.934260
upperback 0.226776 5.154195 5.641005
thorax 5.889300 2.584485 4.164525
lowerneck -28.789349 -9.361215 -20.317049
upperneck 32.194649 -12.111629 20.111099
head 16.920300 -4.868190 8.926109
rclavicle 0.000000 0.000000
rhumerus -39.565502 24.294899 -124.992897
rradius 62.698799
rwrist -31.128599
rhand -48.080254 -32.215500
rfingers 10.687531
rthumb -7.950555 -77.086052
lclavicle 0.000000 0.000000
lhumerus -77.314949 -15.808499 143.304001
lradius 40.172401
lwrist 14.903400
lhand -17.852100 -35.338650
lfingers 10.687531
lthumb 21.228001 8.908410
rfemur 12.815280 8.608500 48.727196
rtibia 10.900710
rfoot -19.644150 8.740440
rtoes -21.567299
lfemur -62.548950 0.888588 -19.212601
ltibia 34.478401
lfoot -23.841900 15.695400
ltoes -22.248301
394
root 14.302950 25.563749 28.396652 9.472845 -1.425396 -8.690865
lowerback -10.920031 4.319580 3.073245
upperback 0.127455 5.269830 5.450430
thorax 6.094980 2.626050 4.492455
lowerneck -28.444651 -9.278385 -20.439899
upperneck 32.010002 -11.999460 20.187302
head 16.775700 -4.831605 8.990849
rclavicle -0.000000 0.000000
rhumerus -39.355198 24.237751 -125.157898
rradius 62.316452
rwrist -30.899099
rhand -47.277298 -33.290848
rfingers 10.687531
rthumb -7.175265 -78.179848
lclavicle -0.000000 0.000000
lhumerus -77.557648 -15.571950 143.470337
lradius 40.043850
lwrist 14.742735
lhand -15.389250 -30.131248
lfingers 10.687531
lthumb 23.600550 13.939381
rfemur 15.262350 8.742661 47.751450
rtibia 6.293370
rfoot -16.555500 8.993896
rtoes -16.477499
lfemur -63.229797 -0.535931 -19.157700
ltibia 33.060753
lfoot -24.365250 16.725451
ltoes -18.345600
395
root 14.302336 25.539452 28.605152 9.402719 -1.675710 -9.865515
lowerback -11.008755 4.500780 4.001355
upperback 0.296148 5.406060 5.765310
thorax 6.354300 2.708160 4.331310
lowerneck -28.601400 -9.260340 -20.191950
upperneck 31.882500 -11.958284 19.968599
head 16.729650 -4.811205 8.863335
rclavicle 0.000000 0.000000
rhumerus -38.942249 23.837549 -125.315849
rradius 61.822350
rwrist -30.178350
rhand -46.149750 -34.288048
rfingers 10.687531
rthumb -6.086535 -79.199699
lclavicle 0.000000 0.000000
lhumerus -77.692047 -15.247650 143.394302
lradius 40.003952
lwrist 14.065455
lhand -15.402901 -30.936750
lfingers 10.687531
lthumb 23.587351 13.135019
rfemur 19.243200 8.948115 49.016548
rtibia -0.000000
rfoot -13.181580 9.065220
rtoes -13.365975
lfemur -63.443401 -1.624005 -16.802849
ltibia 31.889849
lfoot -24.127800 18.002850
ltoes -18.637650
396
root 14.329575 25.510500 28.821449 9.276105 -1.786875 -10.413225
lowerback -11.044559 4.697430 4.654380
upperback 0.483669 5.595150 5.870055
thorax 6.600719 2.814270 4.109580
lowerneck -29.002350 -9.428220 -20.127151
upperneck 32.013298 -12.122234 19.751249
head 16.868549 -4.889970 8.741940
rclavicle -0.000000 -0.000000
rhumerus -38.736153 23.466000 -125.304901
rradius 61.448547
rwrist -29.901749
rhand -46.157402 -33.558300
rfingers 10.687531
rthumb -6.093946 -78.469803
lclavicle -0.000000 -0.000000
lhumerus -77.855247 -15.143400 143.502441
lradius 40.161301
lwrist 13.602571
lhand -17.878050 -37.523849
lfingers 10.687531
lthumb 21.203100 6.724845
rfemur 20.272501 8.965095 49.476753
rtibia -0.000000
rfoot -13.169264 9.330360
rtoes -12.359490
lfemur -63.421051 -3.361680 -15.061649
ltibia 30.795151
lfoot -23.629950 20.757450
ltoes -24.717300
